<svg width="670" height="572" viewBox="0 0 670 572" fill="none" xmlns="http://www.w3.org/2000/svg">
<g clip-path="url(#clip0_26_2)">
<path fill-rule="evenodd" clip-rule="evenodd" d="M600.243 3.66103C636.506 -11.608 675.383 19.0564 668.979 57.8794L593.349 516.436C586.056 560.65 537.496 586.02 496.933 563.986C462.989 545.55 412.629 517.173 367.243 487.516C344.579 472.706 275.183 425.22 283.713 391.416C291.006 362.513 407.669 253.916 474.336 189.333C500.523 163.964 488.596 149.308 457.669 172.666C380.949 230.61 257.777 318.706 217.045 343.5C181.107 365.373 162.343 369.106 139.961 365.373C99.0902 358.563 61.1979 348.016 30.2619 335.193C-11.5505 317.86 -9.51379 260.4 30.2335 243.666L600.243 3.66103Z" fill="white"/>
</g>
<defs>
<clipPath id="clip0_26_2">
<rect width="670" height="572" fill="white"/>
</clipPath>
</defs>
</svg>
